<svg xmlns="http://www.w3.org/2000/svg" width="48" height="48" viewBox="0 0 48 48" id="design"><g><path d="M44 48H4c-2.206 0-4-1.794-4-4V14c0-2.206 1.794-4 4-4h20a1 1 0 0 1 0 2H4c-1.103 0-2 .897-2 2v30c0 1.103.897 2 2 2h40c1.103 0 2-.897 2-2V14c0-1.103-.897-2-2-2a1 1 0 0 1 0-2c2.206 0 4 1.794 4 4v30c0 2.206-1.794 4-4 4z"></path><path d="M44 44H10V14h10a1 1 0 010 2h-8v26h30V16h-2a1 1 0 010-2h4v30zM8 42H0V16h8v26zm-6-2h4V18H2v22z"></path><path d="M17.44 27.56l2.639-8.297L38.071 1.272c1.511-1.512 4.146-1.512 5.657 0a4.003 4.003 0 010 5.656L25.737 24.92l-8.297 2.64zm4.398-7.227l-1.32 4.148 4.148-1.32L42.314 5.515c.78-.78.78-2.048 0-2.828-.756-.756-2.073-.756-2.829 0L21.838 20.333zM1 24h6v2H1zM1 32h6v2H1z"></path><path d="M41.606 8.636a.997.997 0 01-.707-.293L36.656 4.1a.999.999 0 111.414-1.414l4.243 4.243a.999.999 0 01-.707 1.707zM35.95 14.293a.997.997 0 01-.707-.293L31 9.757a.999.999 0 111.414-1.414l4.243 4.243a.999.999 0 01-.707 1.707zM25.202 25.041a.997.997 0 01-.707-.293l-4.243-4.243a.999.999 0 111.414-1.414l4.243 4.243a.999.999 0 01-.707 1.707zM17 29a.999.999 0 01-.707-1.707l1.979-1.979a.999.999 0 111.414 1.414l-1.979 1.979A.997.997 0 0117 29z"></path></g></svg>